<svg width="50" height="50" viewBox="0 0 50 50" fill="none" xmlns="http://www.w3.org/2000/svg">
<path d="M40.3391 20.3273C40.5155 20.3209 40.6914 20.3519 40.8563 20.4184C41.0211 20.4849 41.1715 20.5856 41.2985 20.7144C41.4255 20.8432 41.5265 20.9976 41.5955 21.1682C41.6645 21.3389 41.7 21.5224 41.7 21.7078C41.7 21.8932 41.6645 22.0767 41.5955 22.2474C41.5265 22.418 41.4255 22.5724 41.2985 22.7012C41.1715 22.83 41.0211 22.9307 40.8563 22.9972C40.6914 23.0637 40.5155 23.0947 40.3391 23.0883H36.6844V25.549H40.3391C40.5166 25.5399 40.6941 25.5688 40.8607 25.6338C41.0273 25.6989 41.1795 25.7988 41.3082 25.9275C41.437 26.0562 41.5394 26.211 41.6095 26.3825C41.6795 26.5541 41.7156 26.7388 41.7156 26.9254C41.7156 27.112 41.6795 27.2967 41.6095 27.4682C41.5394 27.6398 41.437 27.7946 41.3082 27.9233C41.1795 28.052 41.0273 28.1519 40.8607 28.2169C40.6941 28.282 40.5166 28.3109 40.3391 28.3018H35.375C35.028 28.3005 34.6956 28.1549 34.4505 27.897C34.2054 27.6391 34.0676 27.2897 34.0672 26.9254V16.4919C34.0672 15.7323 34.6531 15.1089 35.375 15.1089H40.3484C40.6858 15.1272 41.0036 15.2811 41.2359 15.5387C41.4682 15.7963 41.5972 16.1378 41.5962 16.4925C41.5952 16.8472 41.4642 17.1879 41.2305 17.444C40.9967 17.7001 40.6781 17.852 40.3406 17.8682H36.6859V20.329L40.3391 20.3273ZM32.3172 26.9237C32.3143 27.2891 32.1741 27.6385 31.9272 27.896C31.6802 28.1534 31.3464 28.2981 30.9984 28.2985C30.7924 28.3006 30.5887 28.2523 30.4035 28.1575C30.2182 28.0627 30.0566 27.9239 29.9312 27.7522L24.8453 20.4897V26.9221C24.8453 27.2871 24.7072 27.6372 24.4613 27.8953C24.2155 28.1535 23.8821 28.2985 23.5344 28.2985C23.1867 28.2985 22.8533 28.1535 22.6074 27.8953C22.3616 27.6372 22.2234 27.2871 22.2234 26.9221V16.4886C22.2234 15.8996 22.5906 15.3714 23.1187 15.1827C23.2492 15.1344 23.3867 15.1105 23.525 15.1122C23.9312 15.1122 24.3062 15.3435 24.5578 15.6683L29.6844 22.9472V16.4886C29.6844 15.729 30.2703 15.1056 30.9953 15.1056C31.7203 15.1056 32.3141 15.729 32.3141 16.4886L32.3172 26.9237ZM20.3547 26.9237C20.353 27.2897 20.2133 27.64 19.9661 27.898C19.719 28.1559 19.3845 28.3006 19.0359 28.3001C18.69 28.2971 18.3592 28.1508 18.1155 27.893C17.8717 27.6353 17.7348 27.2869 17.7344 26.9237V16.4902C17.7344 15.7307 18.3203 15.1073 19.0453 15.1073C19.7688 15.1073 20.3563 15.7307 20.3563 16.4902L20.3547 26.9237ZM15.2188 28.3001H10.2453C9.89716 28.2993 9.56338 28.1542 9.31647 27.8965C9.06955 27.6388 8.92944 27.2893 8.92656 26.9237V16.4902C8.92656 15.7307 9.52031 15.1073 10.2453 15.1073C10.9703 15.1073 11.5562 15.7307 11.5562 16.4902V25.5474H15.2188C15.5664 25.5474 15.8999 25.6924 16.1457 25.9505C16.3916 26.2086 16.5297 26.5587 16.5297 26.9237C16.5297 27.2888 16.3916 27.6389 16.1457 27.897C15.8999 28.1551 15.5664 28.3001 15.2188 28.3001ZM50 21.3083C50 9.56078 38.7766 0 25 0C11.2234 0 0 9.56078 0 21.3083C0 31.8354 8.89531 40.653 20.9062 42.328C21.7203 42.5068 22.8266 42.8923 23.1125 43.619C23.3641 44.2752 23.275 45.2923 23.1938 45.9863L22.8516 48.2157C22.7531 48.8735 22.3469 50.806 25.0328 49.6265C27.7266 48.447 39.4453 40.7071 44.6937 34.365C48.2828 30.2392 50 26.0001 50 21.3083Z" fill="#5C685D"/>
</svg>
