<svg width="60" height="60" viewBox="0 0 60 60" fill="none" xmlns="http://www.w3.org/2000/svg">
<path d="M54.975 16.3675C54.9542 15.2949 54.8682 14.2246 54.7175 13.1625C54.5379 12.2178 54.2327 11.3013 53.81 10.4375C52.8846 8.61075 51.4012 7.12644 49.575 6.2C48.7168 5.77928 47.8062 5.47493 46.8675 5.295C45.7972 5.14121 44.7185 5.05354 43.6375 5.0325C43.18 5.015 42.5875 5.0075 42.3125 5.0075L17.6925 5C17.4175 5 16.825 5.0075 16.3675 5.025C15.2949 5.04567 14.2246 5.13166 13.1625 5.2825C12.2178 5.4621 11.3013 5.76731 10.4375 6.19C8.61086 7.1155 7.12658 8.5989 6.2 10.425C5.77939 11.2833 5.47505 12.1938 5.295 13.1325C5.14051 14.2027 5.05201 15.2814 5.03 16.3625C5.015 16.82 5.005 17.4125 5.005 17.6875L5 42.3075C5 42.5825 5.0075 43.175 5.025 43.6325C5.04567 44.7051 5.13166 45.7754 5.2825 46.8375C5.46213 47.7822 5.76734 48.6987 6.19 49.5625C7.1155 51.3892 8.5989 52.8734 10.425 53.8C11.2833 54.2206 12.1938 54.5249 13.1325 54.705C14.2027 54.8588 15.2815 54.9465 16.3625 54.9675C16.82 54.985 17.4125 54.9925 17.6875 54.9925L42.3075 54.9975C42.5825 54.9975 43.175 54.99 43.6325 54.9725C44.7051 54.9518 45.7754 54.8658 46.8375 54.715C47.7822 54.5353 48.6987 54.2301 49.5625 53.8075C51.3901 52.8824 52.8753 51.399 53.8025 49.5725C54.2232 48.7142 54.5275 47.8037 54.7075 46.865C54.8621 45.7948 54.9506 44.7161 54.9725 43.635C54.9875 43.1775 54.9975 42.585 54.9975 42.31L55 17.6925C55 17.4175 54.9925 16.825 54.975 16.3675ZM30.5425 47.3925H30.535C27.5592 47.3919 24.6309 46.6459 22.0175 45.2225L12.5675 47.7L15.0975 38.4675C13.1386 35.0683 12.3559 31.1178 12.8707 27.2285C13.3856 23.3392 15.1691 19.7283 17.9449 16.9558C20.7207 14.1833 24.3337 12.4041 28.2236 11.8939C32.1135 11.3837 36.0631 12.1711 39.46 14.134C42.8568 16.0969 45.5112 19.1256 47.0116 22.7507C48.512 26.3757 48.7745 30.3944 47.7585 34.1838C46.7424 37.9732 44.5046 41.3215 41.392 43.7097C38.2793 46.0978 34.4657 47.3923 30.5425 47.3925Z" fill="#5C685D"/>
<path d="M30.55 14.7525C27.9028 14.7517 25.3036 15.4602 23.0229 16.8042C20.7421 18.1482 18.8631 20.0788 17.5812 22.395C16.2994 24.7112 15.6614 27.3286 15.7337 29.9749C15.8061 32.6212 16.586 35.1998 17.9925 37.4425L18.345 38.0025L16.8475 43.4675L22.455 41.9975L22.995 42.3175C25.2778 43.6694 27.882 44.3827 30.535 44.3825H30.5425C34.4721 44.3832 38.2409 42.8228 41.0199 40.0447C43.799 37.2666 45.3606 33.4983 45.3613 29.5688C45.362 25.6392 43.8016 21.8704 41.0235 19.0913C38.2454 16.3123 34.4771 14.7507 30.5475 14.75L30.55 14.7525ZM39.26 35.9275C38.9323 36.4687 38.4962 36.9362 37.979 37.3006C37.4619 37.665 36.8749 37.9185 36.255 38.045C35.3191 38.2055 34.3587 38.1456 33.45 37.87C32.5883 37.6015 31.7413 37.2877 30.9125 36.93C27.8369 35.3865 25.2153 33.0699 23.305 30.2075C22.263 28.8824 21.6304 27.282 21.485 25.6025C21.473 24.9093 21.6055 24.2212 21.8741 23.582C22.1427 22.9428 22.5415 22.3666 23.045 21.89C23.1939 21.7202 23.3762 21.5831 23.5805 21.4871C23.7849 21.3912 24.0069 21.3385 24.2325 21.3325C24.5275 21.3325 24.825 21.3325 25.085 21.3475C25.36 21.36 25.725 21.2425 26.085 22.1125C26.46 23.0025 27.35 25.195 27.46 25.4175C27.5307 25.5341 27.5711 25.6666 27.5776 25.8028C27.5842 25.9389 27.5566 26.0746 27.4975 26.1975C27.3854 26.465 27.2355 26.715 27.0525 26.94C26.8275 27.2 26.585 27.52 26.385 27.72C26.16 27.9425 25.93 28.1825 26.1875 28.6275C26.8564 29.7726 27.6913 30.8123 28.665 31.7125C29.7216 32.6519 30.934 33.3997 32.2475 33.9225C32.6925 34.1475 32.9525 34.1075 33.2125 33.81C33.4725 33.5125 34.325 32.51 34.6225 32.065C34.92 31.62 35.215 31.695 35.6225 31.8425C36.03 31.99 38.2225 33.0675 38.6675 33.2925C39.1125 33.5175 39.41 33.625 39.52 33.81C39.642 34.5261 39.5516 35.2622 39.26 35.9275Z" fill="#5C685D"/>
</svg>
