<svg width="50" height="38" viewBox="0 0 50 38" fill="none" xmlns="http://www.w3.org/2000/svg">
<path d="M50 9.85954V30.6923C50 32.6304 49.1769 34.4892 47.7118 35.8596C46.2466 37.2301 44.2595 38 42.1875 38H7.8125C5.7405 38 3.75336 37.2301 2.28823 35.8596C0.8231 34.4892 0 32.6304 0 30.6923V9.85954L24.2063 23.1829C24.4467 23.3156 24.7208 23.3856 25 23.3856C25.2792 23.3856 25.5533 23.3156 25.7937 23.1829L50 9.85954ZM42.1875 9.04771e-08C44.1098 -0.000282708 45.9648 0.662388 47.3975 1.86124C48.8302 3.06009 49.7401 4.71095 49.9531 6.498L25 20.2277L0.0468753 6.498C0.25987 4.71095 1.16976 3.06009 2.60248 1.86124C4.03521 0.662388 5.89017 -0.000282708 7.8125 9.04771e-08H42.1875Z" fill="#5C685D"/>
</svg>
